# xmcd
#
# Track frame offsets:
#	182
#	14457
#	28122
#	44747
#	54557
#	63517
#	85382
#	99482
#	106922
#	129182
#	141382
#	156532
#	175117
#	188322
#
# Disc length: 2650 seconds
#
# Revision: 1
# Processed by: cddbd v1.5.2PL0 Copyright (c) Steve Scherf et al.
# Submitted via: audiograbber 1.83.01
#
DISCID=be0a580e
DTITLE=Various Artist - Country Hits Vol.1
DYEAR=1900
DGENRE=
TTITLE0=Volker Lechtenbrink - Junge, laﬂ Die Flasche Steh¥n
TTITLE1=Gunter Gabriel - Her Mit Den Papieren
TTITLE2=The Tennessee Stars - Tom Dooley
TTITLE3=Freddy Quinn - Oh Susanna, Du Rose Der Pr‰rie
TTITLE4=Johnny Hill - Ein Ring Aus Feuer (Ring Of Fire)
TTITLE5=Tom Astor - Kameraden Der Straﬂe
TTITLE6=Truck Stop - Das Gibt¥s Doch Nur In Dallas
TTITLE7=Volker Lechtenbrink - Hitch Hike Baby
TTITLE8=Gunter Gabriel - Dosenbier Und Countrymusic
TTITLE9=Freddie Quinn - Six Days On The Road
TTITLE10=Truck Stop - 1000 Meilen Staub Auf Uns¥ren Stiefeln
TTITLE11=Johnny Hill - Sylvias Mutter
TTITLE12=Truck Stop - Country Made In Germany
TTITLE13=Tom Astor - Highway Helden
EXTD=
EXTT0=
EXTT1=
EXTT2=
EXTT3=
EXTT4=
EXTT5=
EXTT6=
EXTT7=
EXTT8=
EXTT9=
EXTT10=
EXTT11=
EXTT12=
EXTT13=
PLAYORDER=
